# xmcd CD database file
#
# Track frame offsets:
#	150
#	17878
#	37623
#	53323
#	73046
#	91919
#	108379
#	130539
#	144789
#	163069
#	178513
#	199363
#	218816
#	236311
#	256405
#
# Disc length: 3712 seconds
#
# Revision: 15
# Processed by: cddbd v1.5.1PL2 Copyright (c) Steve Scherf et al.
# Submitted via: CDex 1.51
#
DISCID=bd0e7e0f
DTITLE=Carlos Viana - Boêmio Poeta
DYEAR=2006
DGENRE=Country
TTITLE0=Tem Jeito Não
TTITLE1=Meu Paraíso
TTITLE2=Cara Metade
TTITLE3=E a Galera Pede Mais
TTITLE4=Sonho de Pai
TTITLE5=Brigando com a Solidão
TTITLE6=Menino de Rua
TTITLE7=Mensagem de Paz
TTITLE8=Boêmio Poeta
TTITLE9=Tira o Pé do Chão
TTITLE10=Chora Viola, Choro Também
TTITLE11=To Amando Você
TTITLE12=Sexta-Treze
TTITLE13=Me deu Saudades
TTITLE14=Você e Eu
EXTD=YEAR: 2006
EXTT0=
EXTT1=
EXTT2=
EXTT3=
EXTT4=
EXTT5=
EXTT6=
EXTT7=
EXTT8=
EXTT9=
EXTT10=
EXTT11=
EXTT12=
EXTT13=
EXTT14=
PLAYORDER=
